<?xml version="1.0" encoding="utf-8"?>
<!DOCTYPE svg PUBLIC "-//W3C//DTD SVG 20010904//EN" "http://www.w3.org/TR/2001/REC-SVG-20010904/DTD/svg10.dtd">
<svg version="1.0" xmlns="http://www.w3.org/2000/svg" width="514pt" height="514pt" viewBox="0 0 514 514" style="" preserveAspectRatio="xMidYMid meet">
<g fill="#000000FF" stroke="#000000FF">
<path d="M 218.185 26.118 C 206.533 28.057 194.500 37.022 189.573 47.437 C 185.787 55.440 184.770 63.911 185.154 84.242 C 185.481 101.573 185.638 102.826 188.055 107.520 C 196.881 124.661 221.123 124.661 229.944 107.520 C 232.275 102.990 232.528 101.276 232.858 87.780 L 233.218 73.000 337.109 73.000 L 441.000 73.000 441.000 257.000 L 441.000 441.000 337.109 441.000 L 233.218 441.000 232.858 426.220 C 232.528 412.724 232.275 411.010 229.944 406.480 C 221.123 389.339 196.881 389.339 188.055 406.480 C 185.638 411.174 185.481 412.427 185.154 429.758 C 184.945 440.797 185.268 450.720 185.966 454.729 C 189.042 472.388 201.750 485.131 219.090 487.945 C 227.894 489.373 446.106 489.373 454.910 487.945 C 472.192 485.141 485.141 472.192 487.945 454.910 C 489.387 446.019 489.387 67.981 487.945 59.090 C 485.128 41.727 472.274 28.873 454.914 26.056 C 446.949 24.763 225.978 24.822 218.185 26.118 "/></g>
<g fill="#000000FF" stroke="#000000FF">
<path d="M 268.500 145.377 C 265.750 146.674 262.515 148.807 261.312 150.118 C 257.765 153.980 255.045 161.075 255.032 166.500 C 255.009 175.892 257.510 179.227 285.404 207.000 L 311.015 232.500 177.230 233.000 L 43.446 233.500 38.482 236.055 C 21.338 244.878 21.338 269.122 38.482 277.945 L 43.446 280.500 177.430 280.768 L 311.415 281.036 284.836 307.768 C 262.867 329.864 257.953 335.319 256.503 339.224 C 251.103 353.763 261.379 369.676 276.894 370.799 C 288.071 371.607 287.435 372.127 341.200 318.205 C 393.176 266.077 392.354 267.061 392.354 257.000 C 392.354 246.952 393.131 247.885 341.631 196.140 C 303.655 157.984 292.445 147.278 288.500 145.400 C 281.923 142.269 275.108 142.261 268.500 145.377 "/></g>
</svg>
