<svg xmlns="http://www.w3.org/2000/svg" version="1.1" xmlns:xlink="http://www.w3.org/1999/xlink" xmlns:svgjs="http://svgjs.dev/svgjs" width="2000" height="1252" viewBox="0 0 2000 1252"><g transform="matrix(1,0,0,1,-1.2121212121212466,-2.01935483870966)"><svg viewBox="0 0 396 248" data-background-color="#d8d8d8" preserveAspectRatio="xMidYMid meet" height="1252" width="2000" xmlns="http://www.w3.org/2000/svg" xmlns:xlink="http://www.w3.org/1999/xlink"><g id="tight-bounds" transform="matrix(1,0,0,1,0.2400000000000091,0.4000000000000057)"><svg viewBox="0 0 395.52 247.2" height="247.2" width="395.52"><g><svg></svg></g><g><svg viewBox="0 0 395.52 247.2" height="247.2" width="395.52"><mask id="85a30838-94a8-41ff-ab76-03b51ac0f913"><rect width="640" height="400" fill="white"></rect><g transform="matrix(1,0,0,1,39.55199999999999,41.70507091521446)"><svg viewBox="0 0 316.416 163.78985816957106" height="163.78985816957106" width="316.416"><g><svg viewBox="0 0 316.416 163.78985816957106" height="163.78985816957106" width="316.416"><g><svg viewBox="0 0 316.416 163.78985816957106" height="163.78985816957106" width="316.416"><g><svg viewBox="0 0 316.416 163.78985816957106" height="163.78985816957106" width="316.416"><g id="SvgjsG2304"><svg viewBox="0 0 316.416 163.78985816957106" height="163.78985816957106" width="316.416" id="SvgjsSvg2303"><g><svg viewBox="0 0 316.416 101.66177026866617" height="101.66177026866617" width="316.416"><g transform="matrix(1,0,0,1,0,0)"><svg width="316.416" viewBox="-3.389930527775 -31.4 127.344930527775 41.6" height="101.66177026866617" data-palette-color="#dd7914"><path d="M27.85 6.2L27.85 6.2Q23.9 6.2 20.95 3.85L20.95 3.85Q19.55 2.7 17.9 0.83 16.25-1.05 14.7-3.23 13.15-5.4 11.95-7.3L11.95-7.3Q9.85-6.95 8.05-6.85L8.05-6.85Q7.05-4.95 6.35-3.2 5.65-1.45 5.3 0.15L5.3 0.15Q5.25 0.45 5.23 0.65 5.2 0.85 5.2 0.95L5.2 0.95Q5.2 1.85 5.55 2.53 5.9 3.2 6.35 3.25L6.35 3.25Q6.75 3.3 7 3.45 7.25 3.6 7.35 3.8L7.35 3.8 7.35 3.9Q7.35 4.25 6.5 4.25L6.5 4.25Q3.65 4.25 3.65 1.65L3.65 1.65Q3.65 1.45 3.7 1.07 3.75 0.7 3.85 0.15L3.85 0.15Q4.5-3.05 6.35-6.9L6.35-6.9Q5.5-7.15 4.53-7.65 3.55-8.15 2.9-9.13 2.25-10.1 2.25-11.75L2.25-11.75Q2.25-13.5 3.1-14.68 3.95-15.85 5.4-15.85L5.4-15.85Q6.55-15.85 7.95-15L7.95-15Q8.05-14.95 8.22-14.8 8.4-14.65 8.75-14.45L8.75-14.45Q9.3-14.1 9.95-13.3L9.95-13.3Q11.2-15.15 12.53-16.82 13.85-18.5 15.25-20.05L15.25-20.05Q15.45-20.25 15.45-20.6L15.45-20.6 15.45-20.8Q15.45-21.15 15.6-21.3L15.6-21.3Q16-21.7 17.25-22.2L17.25-22.2Q17.5-22.35 17.55-22.5L17.55-22.5Q17.8-22.8 18.25-22.8L18.25-22.8Q18.95-22.8 19.55-22.33 20.15-21.85 19.75-21.45L19.75-21.45 18.85-20.5Q17.7-19.35 16.2-17.7L16.2-17.7Q14.9-16.3 13.65-14.83 12.4-13.35 11.25-11.75L11.25-11.75Q11.65-11.15 12.15-10.4 12.65-9.65 13.15-8.8L13.15-8.8Q16.2-9.35 18.82-10.23 21.45-11.1 24.05-12.55L24.05-12.55Q27.3-14.35 29-16.45 30.7-18.55 30.7-20.5L30.7-20.5Q30.7-22.85 28.28-24.38 25.85-25.9 21.45-25.9L21.45-25.9Q20.05-25.9 18.45-25.7 16.85-25.5 15-25.1L15-25.1Q11.35-24.3 7.7-22.4 4.05-20.5 1.65-17.6L1.65-17.6Q1.1-16.95 0.7-17.35L0.7-17.35Q0.55-17.55 0.65-18L0.65-18Q0.7-18.35 1.2-19.1L1.2-19.1Q2.85-21.45 6.6-23.3L6.6-23.3Q9.1-24.6 11.85-25.5 14.6-26.4 17.15-26.9 19.7-27.4 21.55-27.4L21.55-27.4Q25.15-27.4 27.95-26.55L27.95-26.55Q33.4-24.8 33.4-20.95L33.4-20.95Q33.4-18.85 31.55-16.63 29.7-14.4 26.05-12.35L26.05-12.35Q23.8-11.1 20.5-9.83 17.2-8.55 13.85-7.7L13.85-7.7Q14.3-6.9 15.2-5.7 16.1-4.5 17.18-3.23 18.25-1.95 19.3-0.83 20.35 0.3 21.1 1L21.1 1Q25.2 4.8 29.5 4.8L29.5 4.8Q33.55 4.8 36.4 1.35L36.4 1.35Q36.5 1.25 36.65 1.25L36.65 1.25Q36.85 1.25 36.98 1.45 37.1 1.65 36.95 1.9L36.95 1.9Q35.15 4.05 32.77 5.13 30.4 6.2 27.85 6.2ZM7.15-8.55L7.15-8.55Q7.4-9.05 7.88-9.88 8.35-10.7 9-11.8L9-11.8Q8-13.1 6.83-13.73 5.65-14.35 4.5-14.35L4.5-14.35Q3.5-14.35 3.5-13.2L3.5-13.2Q3.5-11.4 4.4-10.18 5.3-8.95 7.15-8.55ZM9-8.4L9-8.4Q9.35-8.4 9.9-8.43 10.45-8.45 11.25-8.5L11.25-8.5 10.15-10.2Q9.8-9.7 9.53-9.25 9.25-8.8 9-8.4ZM30.1 0.55L30.1 0.55Q29.05 0.55 28.25 0L28.25 0Q26.95-1 26.95-3L26.95-3Q26.95-5 28.35-7.25 29.75-9.5 32.6-11.4L32.6-11.4Q33.1-11.75 33.95-11.75L33.95-11.75Q35.05-11.75 35.92-11.15 36.8-10.55 36.6-9.6L36.6-9.6Q36.25-8.05 35.07-6.85 33.9-5.65 32.32-4.73 30.75-3.8 29.1-2.95L29.1-2.95Q29.05-2.8 29.02-2.65 29-2.5 29-2.35L29-2.35Q29-1.65 29.47-1.13 29.95-0.6 30.8-0.6L30.8-0.6Q31.45-0.6 31.9-0.8L31.9-0.8Q32.7-1.1 33.22-1.35 33.75-1.6 34.45-2.1 35.15-2.6 36.35-3.6L36.35-3.6Q36.9-4 37-4L37-4Q37.3-4 37.2-3.55L37.2-3.55Q36.7-2.75 35.47-1.8 34.25-0.85 32.77-0.15 31.3 0.55 30.1 0.55ZM29.4-4.3L29.4-4.3Q29.8-4.3 31.05-5.1 32.3-5.9 33.4-6.85L33.4-6.85Q35.3-8.6 35.3-9.55L35.3-9.55Q35.3-9.8 35.15-10L35.15-10Q35-10.25 34.7-10.25L34.7-10.25Q33.75-10.25 31.5-8L31.5-8Q29.95-6.5 29.4-4.3ZM37.4 0.8L37.4 0.8Q36.5 0.8 36.5 0.1L36.5 0.1Q36.5-0.35 36.82-1.05 37.15-1.75 37.5-2.4L37.5-2.4Q38.45-4.1 39.25-5.7 40.05-7.3 40.8-9.1L40.8-9.1Q41.15-9.9 41.85-9.9L41.85-9.9Q42.6-9.9 42.3-9L42.3-9Q42-8.25 41.7-7.65L41.7-7.65Q40.3-4.8 40.3-3.8L40.3-3.8Q40.3-3.35 40.6-3.25L40.6-3.25Q41.3-3.8 41.65-4.08 42-4.35 42.05-4.4L42.05-4.4Q42.75-4.95 43.62-5.68 44.5-6.4 45.55-7.35L45.55-7.35Q47.2-8.85 48.3-8.85L48.3-8.85Q49.65-8.85 49.45-6.4L49.45-6.4Q49.4-5.45 49.45-4.55L49.45-4.55Q49.5-4.35 49.5-3.98 49.5-3.6 49.5-3.1L49.5-3.1Q49.5-2.6 50.1-2.6L50.1-2.6Q50.8-2.6 51.4-3L51.4-3 52.5-3.75 53.6-4.45Q53.7-4.5 53.95-4.5L53.95-4.5Q54.25-4.5 53.95-4.05L53.95-4.05Q50.8-0.15 48.75-0.15L48.75-0.15Q48.35-0.15 47.95-0.3L47.95-0.3Q47.6-0.45 47.45-1.18 47.3-1.9 47.27-2.75 47.25-3.6 47.25-4.05L47.25-4.05 47.3-5.7Q47.3-6.75 46.75-6.75L46.75-6.75Q45.45-6.75 40.35-1.4L40.35-1.4Q39.95-0.9 39.1-0.05 38.25 0.8 37.4 0.8ZM54.54 4.65L54.54 4.65Q54.29 4.65 54.29 4.2L54.29 4.2Q54.29 4.1 54.32 3.93 54.34 3.75 54.39 3.55L54.39 3.55 56.54-1.85 59.09-8.15Q58.49-8.2 57.34-8.13 56.19-8.05 55.39-7.9L55.39-7.9Q55.09-7.85 54.92-7.83 54.74-7.8 54.64-7.8L54.64-7.8Q54.24-7.8 54.09-8.15L54.09-8.15Q54.14-8.45 54.64-8.7L54.64-8.7Q54.89-8.8 55.24-8.88 55.59-8.95 56.09-9.05L56.09-9.05Q56.64-9.15 57.07-9.2 57.49-9.25 57.69-9.3L57.69-9.3Q57.94-9.35 58.19-9.4 58.44-9.45 58.79-9.5L58.79-9.5Q59.09-9.55 59.44-9.6 59.79-9.65 60.19-9.75L60.19-9.75Q60.59-10.3 61.39-11.7 62.19-13.1 63.44-15.4L63.44-15.4Q64.44-17.25 65.07-18.32 65.69-19.4 65.94-19.75L65.94-19.75Q66.39-20.35 66.99-20.35L66.99-20.35Q67.29-20.35 67.29-20.1L67.29-20.1Q67.29-20.05 67.04-19.45L67.04-19.45Q66.74-18.95 66.04-17.6 65.34-16.25 64.54-14.65 63.74-13.05 63.09-11.65 62.44-10.25 62.19-9.6L62.19-9.6Q62.44-9.65 62.77-9.65 63.09-9.65 63.59-9.65L63.59-9.65Q64.14-9.65 64.62-9.63 65.09-9.6 65.44-9.55L65.44-9.55Q66.14-9.4 66.14-9.15L66.14-9.15Q66.14-9.05 65.69-8.8L65.69-8.8Q65.44-8.7 64.74-8.6 64.04-8.5 62.89-8.4L62.89-8.4Q62.59-8.4 62.24-8.38 61.89-8.35 61.49-8.3L61.49-8.3Q59.99-5.85 57.39-0.15L57.39-0.15Q56.44 1.75 55.94 2.8 55.44 3.85 55.34 4.05L55.34 4.05Q54.89 4.65 54.54 4.65ZM91.09 6.2L91.09 6.2Q87.14 6.2 84.19 3.85L84.19 3.85Q82.79 2.7 81.14 0.83 79.49-1.05 77.94-3.23 76.39-5.4 75.19-7.3L75.19-7.3Q73.09-6.95 71.29-6.85L71.29-6.85Q70.29-4.95 69.59-3.2 68.89-1.45 68.54 0.15L68.54 0.15Q68.49 0.45 68.47 0.65 68.44 0.85 68.44 0.95L68.44 0.95Q68.44 1.85 68.79 2.53 69.14 3.2 69.59 3.25L69.59 3.25Q69.99 3.3 70.24 3.45 70.49 3.6 70.59 3.8L70.59 3.8 70.59 3.9Q70.59 4.25 69.74 4.25L69.74 4.25Q66.89 4.25 66.89 1.65L66.89 1.65Q66.89 1.45 66.94 1.07 66.99 0.7 67.09 0.15L67.09 0.15Q67.74-3.05 69.59-6.9L69.59-6.9Q68.74-7.15 67.77-7.65 66.79-8.15 66.14-9.13 65.49-10.1 65.49-11.75L65.49-11.75Q65.49-13.5 66.34-14.68 67.19-15.85 68.64-15.85L68.64-15.85Q69.79-15.85 71.19-15L71.19-15Q71.29-14.95 71.47-14.8 71.64-14.65 71.99-14.45L71.99-14.45Q72.54-14.1 73.19-13.3L73.19-13.3Q74.44-15.15 75.77-16.82 77.09-18.5 78.49-20.05L78.49-20.05Q78.69-20.25 78.69-20.6L78.69-20.6 78.69-20.8Q78.69-21.15 78.84-21.3L78.84-21.3Q79.24-21.7 80.49-22.2L80.49-22.2Q80.74-22.35 80.79-22.5L80.79-22.5Q81.04-22.8 81.49-22.8L81.49-22.8Q82.19-22.8 82.79-22.33 83.39-21.85 82.99-21.45L82.99-21.45 82.09-20.5Q80.94-19.35 79.44-17.7L79.44-17.7Q78.14-16.3 76.89-14.83 75.64-13.35 74.49-11.75L74.49-11.75Q74.89-11.15 75.39-10.4 75.89-9.65 76.39-8.8L76.39-8.8Q79.44-9.35 82.07-10.23 84.69-11.1 87.29-12.55L87.29-12.55Q90.54-14.35 92.24-16.45 93.94-18.55 93.94-20.5L93.94-20.5Q93.94-22.85 91.52-24.38 89.09-25.9 84.69-25.9L84.69-25.9Q83.29-25.9 81.69-25.7 80.09-25.5 78.24-25.1L78.24-25.1Q74.59-24.3 70.94-22.4 67.29-20.5 64.89-17.6L64.89-17.6Q64.34-16.95 63.94-17.35L63.94-17.35Q63.79-17.55 63.89-18L63.89-18Q63.94-18.35 64.44-19.1L64.44-19.1Q66.09-21.45 69.84-23.3L69.84-23.3Q72.34-24.6 75.09-25.5 77.84-26.4 80.39-26.9 82.94-27.4 84.79-27.4L84.79-27.4Q88.39-27.4 91.19-26.55L91.19-26.55Q96.64-24.8 96.64-20.95L96.64-20.95Q96.64-18.85 94.79-16.63 92.94-14.4 89.29-12.35L89.29-12.35Q87.04-11.1 83.74-9.83 80.44-8.55 77.09-7.7L77.09-7.7Q77.54-6.9 78.44-5.7 79.34-4.5 80.42-3.23 81.49-1.95 82.54-0.83 83.59 0.3 84.34 1L84.34 1Q88.44 4.8 92.74 4.8L92.74 4.8Q96.79 4.8 99.64 1.35L99.64 1.35Q99.74 1.25 99.89 1.25L99.89 1.25Q100.09 1.25 100.22 1.45 100.34 1.65 100.19 1.9L100.19 1.9Q98.39 4.05 96.02 5.13 93.64 6.2 91.09 6.2ZM70.39-8.55L70.39-8.55Q70.64-9.05 71.12-9.88 71.59-10.7 72.24-11.8L72.24-11.8Q71.24-13.1 70.07-13.73 68.89-14.35 67.74-14.35L67.74-14.35Q66.74-14.35 66.74-13.2L66.74-13.2Q66.74-11.4 67.64-10.18 68.54-8.95 70.39-8.55ZM72.24-8.4L72.24-8.4Q72.59-8.4 73.14-8.43 73.69-8.45 74.49-8.5L74.49-8.5 73.39-10.2Q73.04-9.7 72.77-9.25 72.49-8.8 72.24-8.4ZM95.64-10.95L95.64-10.95Q94.99-10.95 94.99-11.25L94.99-11.25Q94.99-11.5 95.36-11.98 95.74-12.45 96.24-12.8L96.24-12.8Q97.34-13.5 97.96-14 98.59-14.5 99.49-15.7L99.49-15.7Q99.54-15.6 99.54-15.3L99.54-15.3Q99.54-14.65 99.01-13.73 98.49-12.8 97.84-12.05 97.19-11.3 96.69-11.1L96.69-11.1Q96.24-10.95 95.64-10.95ZM91.19 1.3L91.19 1.3Q90.79 1.3 90.44 1 90.09 0.7 90.09 0.2L90.09 0.2Q90.09-0.85 91.54-3.65L91.54-3.65 92.09-4.75Q92.19-4.85 92.36-5.25 92.54-5.65 92.89-6.3L92.89-6.3Q93.24-7 93.44-7.55 93.64-8.1 93.74-8.6L93.74-8.6Q93.74-8.65 93.94-8.8 94.14-8.95 94.34-9.05L94.34-9.05 94.64-9.1Q95.04-9.1 95.31-8.95 95.59-8.8 95.49-8.55L95.49-8.55Q95.14-7.8 94.89-7.25 94.64-6.7 94.49-6.3L94.49-6.3 94.44-6.3Q93.89-5.05 93.51-3.93 93.14-2.8 93.19-1.8L93.19-1.8 93.24-0.45Q93.19 0.05 92.89 0.4L92.89 0.4Q92.69 0.55 92.34 0.78 91.99 1 91.44 1.25L91.44 1.25Q91.39 1.3 91.19 1.3ZM104.34 3.75L104.34 3.75Q103.59 3.75 103.24 3L103.24 3Q103.19 2.95 103.19 2.7L103.19 2.7Q103.19 2.45 103.44 1.55L103.44 1.55Q103.54 1.3 103.61 1.05 103.69 0.8 103.79 0.55L103.79 0.55Q103.89 0.3 103.99-0.03 104.09-0.35 104.19-0.7L104.19-0.7Q104.39-1.45 104.39-1.95L104.39-1.95Q104.39-2.65 103.94-2.65L103.94-2.65Q103.79-2.65 103.39-2.4L103.39-2.4Q102.74-1.9 102.01-1.45 101.29-1 100.49-0.6L100.49-0.6 98.89 0.25 97.84 0.85Q97.69 0.9 97.14 1.3L97.14 1.3Q96.64 1.6 96.09 1.6L96.09 1.6Q95.44 1.6 94.64 0.9L94.64 0.9Q94.04 0.3 94.04-0.35L94.04-0.35Q94.04-0.9 94.59-1.9L94.59-1.9Q94.99-2.55 95.94-3.5L95.94-3.5Q96.34-3.9 96.61-4.23 96.89-4.55 97.09-4.75L97.09-4.75Q99.19-7.55 103.59-9.7L103.59-9.7Q104.84-10.35 105.84-10.35L105.84-10.35Q106.94-10.35 107.59-9.45L107.59-9.45Q107.89-10.05 108.56-11.18 109.24-12.3 110.06-13.65 110.89-15 111.66-16.2 112.44-17.4 112.89-18.05L112.89-18.05Q114.24-19.9 115.09-20.85L115.09-20.85Q115.94-21.75 116.64-21.75L116.64-21.75Q116.89-21.75 117.29-21.5L117.29-21.5Q117.64-21.2 117.64-20.7L117.64-20.7Q117.64-19.95 116.99-18.95 116.34-17.95 115.19-16.5L115.19-16.5Q115.09-16.35 114.89-16.13 114.69-15.9 114.44-15.55L114.44-15.55Q113.89-14.75 113.29-13.88 112.69-13 111.99-12.15L111.99-12.15Q110.99-10.85 109.89-9.33 108.79-7.8 107.84-6.15L107.84-6.15Q106.99-4.65 106.39-3.08 105.79-1.5 105.39 0.1L105.39 0.1Q105.34 0.45 105.31 0.68 105.29 0.9 105.29 1L105.29 1 105.34 1.75Q105.39 1.9 105.39 2.45L105.39 2.45Q105.39 3.75 104.34 3.75ZM97.49-0.55L97.49-0.55Q98.04-0.55 98.49-0.75L98.49-0.75Q100.39-1.4 102.09-2.4 103.79-3.4 105.69-5.1L105.69-5.1Q105.94-5.8 106.29-6.6 106.64-7.4 107.04-8.35L107.04-8.35Q106.44-9.6 105.29-9.6L105.29-9.6Q104.54-9.6 103.69-9.1 102.84-8.6 101.79-7.75L101.79-7.75Q100.79-6.95 99.76-5.95 98.74-4.95 97.99-4.03 97.24-3.1 96.94-2.5L96.94-2.5Q96.64-2 96.64-1.35L96.64-1.35Q96.64-0.55 97.49-0.55ZM112.83 0.55L112.83 0.55Q111.78 0.55 110.98 0L110.98 0Q109.68-1 109.68-3L109.68-3Q109.68-5 111.08-7.25 112.48-9.5 115.33-11.4L115.33-11.4Q115.83-11.75 116.68-11.75L116.68-11.75Q117.78-11.75 118.66-11.15 119.53-10.55 119.33-9.6L119.33-9.6Q118.98-8.05 117.81-6.85 116.63-5.65 115.06-4.73 113.48-3.8 111.83-2.95L111.83-2.95Q111.78-2.8 111.76-2.65 111.73-2.5 111.73-2.35L111.73-2.35Q111.73-1.65 112.21-1.13 112.68-0.6 113.53-0.6L113.53-0.6Q114.18-0.6 114.63-0.8L114.63-0.8Q115.43-1.1 115.96-1.35 116.48-1.6 117.18-2.1 117.88-2.6 119.08-3.6L119.08-3.6Q119.63-4 119.73-4L119.73-4Q120.03-4 119.93-3.55L119.93-3.55Q119.43-2.75 118.21-1.8 116.98-0.85 115.51-0.15 114.03 0.55 112.83 0.55ZM112.13-4.3L112.13-4.3Q112.53-4.3 113.78-5.1 115.03-5.9 116.13-6.85L116.13-6.85Q118.03-8.6 118.03-9.55L118.03-9.55Q118.03-9.8 117.88-10L117.88-10Q117.73-10.25 117.43-10.25L117.43-10.25Q116.48-10.25 114.23-8L114.23-8Q112.68-6.5 112.13-4.3Z" opacity="1" transform="matrix(1,0,0,1,0,0)" fill="black" class="wordmark-text-0" id="SvgjsPath2302" stroke-width="7" stroke="black" stroke-linejoin="round"></path></svg></g></svg></g><g transform="matrix(1,0,0,1,3.5,121.52375985041428)"><svg viewBox="0 0 309.416 42.26609831915679" height="42.26609831915679" width="309.416"><g transform="matrix(1,0,0,1,0,0)"><svg width="309.416" viewBox="-1.5099999999999998 -42.11 389.83 54.12" height="42.26609831915679" data-palette-color="#3a4d81"><path d="M3.76-9.74L6.15-3.2Q9.99-2.25 12.55-2.25L12.55-2.25Q13.87-2.25 15.15-2.53 16.43-2.81 17.44-3.49 18.46-4.17 19.08-5.31 19.7-6.45 19.7-8.15L19.7-8.15Q19.7-9.28 19.38-10.27 19.07-11.25 18.23-12.23 17.38-13.21 15.94-14.22 14.5-15.23 12.26-16.46L12.26-16.46Q9.81-17.77 8.04-18.96 6.27-20.14 5.11-21.41 3.96-22.68 3.41-24.15 2.86-25.61 2.86-27.49L2.86-27.49Q2.86-36.69 14.36-36.69L14.36-36.69Q18.43-36.69 22.95-35.55L22.95-35.55 22.95-27.1 21.95-27.1 19.31-33.3Q16.72-33.84 14.65-33.84L14.65-33.84Q11.16-33.84 9.2-32.51 7.25-31.18 7.25-28.39L7.25-28.39Q7.25-27.42 7.52-26.54 7.79-25.66 8.62-24.71 9.45-23.75 10.96-22.68 12.48-21.61 14.94-20.24L14.94-20.24Q17.38-18.92 19.2-17.8 21.02-16.67 22.22-15.49 23.41-14.31 24.01-12.92 24.61-11.52 24.61-9.69L24.61-9.69Q24.61-6.76 23.63-4.8 22.66-2.83 21.01-1.62 19.36-0.42 17.16 0.1 14.97 0.61 12.55 0.61L12.55 0.61Q11.13 0.61 9.92 0.52 8.72 0.44 7.54 0.26 6.37 0.07 5.15-0.23 3.93-0.54 2.49-0.95L2.49-0.95 2.49-9.74 3.76-9.74ZM48.58-3.39L53.1-2.15 53.1-1.25 47.8 0.39Q46.24 0.73 45.16 0.04 44.09-0.66 44.09-2.34L44.09-2.34Q40.92 0.61 36.64 0.61L36.64 0.61Q33.1 0.61 31.35-1.22 29.59-3.05 29.59-5.81L29.59-5.81Q29.59-7.89 30.52-9.48 31.44-11.08 32.88-12.04 34.32-12.99 36.33-13.62 38.33-14.26 40.18-14.5 42.04-14.75 44.09-14.79L44.09-14.79 44.09-17.14Q44.09-20.56 43.02-21.9 41.94-23.24 39.45-23.24L39.45-23.24Q37.57-23.24 35.03-22.66L35.03-22.66 32.44-16.99 31.25-16.99 31.25-23.95Q33.44-24.73 35.89-25.17 38.33-25.61 40.18-25.61L40.18-25.61Q44.21-25.61 46.4-23.99 48.58-22.36 48.58-18.65L48.58-18.65 48.58-3.39ZM38.69-2.25L38.69-2.25Q40.09-2.25 41.55-2.92 43.02-3.59 44.09-4.76L44.09-4.76 44.09-12.79Q39.21-12.57 36.64-10.8 34.08-9.03 34.08-6.3L34.08-6.3Q34.08-4.2 35.42-3.22 36.77-2.25 38.69-2.25ZM72.58-23.1L64.84-21.61 64.84-2.76 71.09-1 71.09 0 55.83 0 55.83-1 60.32-2.76 60.32-21.51 55.59-22.85 55.59-23.85 60.32-24.85 60.32-27.34Q60.32-29.96 61.25-32.06 62.18-34.16 63.73-35.45 65.28-36.74 67.22-37.43 69.16-38.11 71.28-38.11L71.28-38.11Q72.04-38.11 73.31-37.92 74.58-37.72 75.24-37.45L75.24-37.45 75.24-30 74.24-30 70.77-35.84Q68.65-35.84 67.29-34.77 65.94-33.69 65.39-31.97 64.84-30.25 64.84-27.86L64.84-27.86 64.84-24.85 71.72-24.85 72.58-24.56 72.58-23.1ZM97.28-13.06L96.57-12.35 80.78-12.35Q80.8-9.62 81.56-7.59 82.32-5.57 83.61-4.42 84.9-3.27 86.45-2.73 88.01-2.2 89.84-2.2L89.84-2.2Q92.38-2.2 95.28-3.91L95.28-3.91 96.04-2.44Q93.99-0.63 91.94-0.01 89.89 0.61 87.27 0.61L87.27 0.61Q85 0.61 82.9-0.35 80.8-1.32 79.22-3.02 77.63-4.71 76.68-7.18 75.72-9.64 75.72-12.5L75.72-12.5Q75.72-15.21 76.42-17.44 77.12-19.68 78.26-21.17 79.41-22.66 80.94-23.68 82.46-24.71 84.06-25.16 85.66-25.61 87.32-25.61L87.32-25.61Q89.4-25.61 91.17-24.84 92.94-24.07 94.32-22.57 95.7-21.07 96.49-18.63 97.28-16.19 97.28-13.06L97.28-13.06ZM87.42-23.24L87.42-23.24Q84.61-23.24 82.94-21.02 81.27-18.8 80.88-14.94L80.88-14.94 92.52-14.94Q92.52-18.85 91.2-21.04 89.89-23.24 87.42-23.24ZM103.82-2.44L103.82-2.44Q103.82-3.71 104.73-4.6 105.63-5.49 106.92-5.49L106.92-5.49Q108.56-5.49 109.32-4.33 110.07-3.17 110.07-1.39L110.07-1.39Q110.07 1.88 108 4.5 105.92 7.13 102.82 8.01L102.82 8.01 102.04 6.49Q104.12 5.52 105.54 4.1 106.97 2.69 106.97 1.1L106.97 1.1 106.92 0.66Q105.63 0.66 104.73-0.24 103.82-1.15 103.82-2.44ZM143.42-10.79L143.47-0.9Q139.2 0.61 134.73 0.61L134.73 0.61Q131.7 0.61 128.95-0.06 126.21-0.73 123.8-2.2 121.4-3.66 119.63-5.76 117.86-7.86 116.85-10.9 115.83-13.94 115.83-17.6L115.83-17.6Q115.83-22.19 117.32-25.89 118.81-29.59 121.39-31.95 123.96-34.3 127.38-35.55 130.8-36.79 134.73-36.79L134.73-36.79Q138.88-36.79 143.13-35.45L143.13-35.45 143.08-26.15 142.08-26.15 139.03-33.11Q136.97-34.01 133.63-34.01L133.63-34.01Q131.68-34.01 129.94-33.5 128.21-32.98 126.61-31.79 125.01-30.59 123.85-28.77 122.69-26.95 122.01-24.17 121.33-21.39 121.33-17.9L121.33-17.9Q121.33-14.18 122.41-11.15 123.5-8.11 125.38-6.14 127.26-4.17 129.74-3.11 132.21-2.05 135.02-2.05L135.02-2.05Q137.51-2.05 139.73-2.76L139.73-2.76 142.42-10.79 143.42-10.79ZM159.95-25.61L159.95-25.61Q162.73-25.61 164.95-24.66 167.17-23.71 168.71-21.98 170.25-20.26 171.07-17.85 171.88-15.43 171.88-12.5L171.88-12.5Q171.88-9.59 171.08-7.18 170.27-4.76 168.74-3.03 167.2-1.29 164.98-0.34 162.75 0.61 159.95 0.61L159.95 0.61Q157.11 0.61 154.89-0.34 152.67-1.29 151.13-3.03 149.59-4.76 148.79-7.17 147.98-9.57 147.98-12.5L147.98-12.5Q147.98-15.43 148.8-17.85 149.62-20.26 151.16-21.98 152.69-23.71 154.92-24.66 157.14-25.61 159.95-25.61ZM154.62-20.43L154.62-20.43Q152.74-17.38 152.74-12.5L152.74-12.5Q152.74-10.08 153.22-8.07 153.7-6.05 154.61-4.6 155.53-3.15 156.87-2.34 158.21-1.54 159.95-1.54L159.95-1.54Q161.68-1.54 163.05-2.34 164.41-3.15 165.35-4.6 166.29-6.05 166.79-8.07 167.29-10.08 167.29-12.5L167.29-12.5Q167.29-14.89 166.79-16.91 166.29-18.92 165.35-20.37 164.41-21.83 163.05-22.64 161.68-23.46 159.95-23.46L159.95-23.46Q156.48-23.46 154.62-20.43ZM184.87-2.76L189.12-1 189.12 0 175.89 0 175.89-1 180.38-2.76 180.38-21.09 175.89-22.85 175.89-23.85 184.38-25.61 184.87-25.1 184.87-22.14Q186.6-23.75 188.92-24.68 191.24-25.61 193.49-25.61L193.49-25.61Q196.76-25.61 198.92-23.61 201.08-21.61 201.08-17.65L201.08-17.65 201.08-2.76 205.57-1 205.57 0 192.32 0 192.32-1 196.59-2.76 196.59-16.16Q196.59-19.68 195.33-21.04 194.07-22.41 191.02-22.41L191.02-22.41Q187.38-22.41 184.87-20.24L184.87-20.24 184.87-2.76ZM223.22-25L233.57-25 233.57-24 230.08-22.24 230.08-22.41 221.37 0.05 218.68 0.61 209.04-22.24 205.57-24 205.57-25 217.53-25 217.53-24 213.73-22.51 220.78-5.64 226.84-22.56 223.22-24 223.22-25ZM256.62-13.06L255.91-12.35 240.11-12.35Q240.14-9.62 240.9-7.59 241.65-5.57 242.95-4.42 244.24-3.27 245.79-2.73 247.34-2.2 249.17-2.2L249.17-2.2Q251.71-2.2 254.62-3.91L254.62-3.91 255.37-2.44Q253.32-0.63 251.27-0.01 249.22 0.61 246.61 0.61L246.61 0.61Q244.34 0.61 242.24-0.35 240.14-1.32 238.55-3.02 236.96-4.71 236.01-7.18 235.06-9.64 235.06-12.5L235.06-12.5Q235.06-15.21 235.76-17.44 236.45-19.68 237.6-21.17 238.75-22.66 240.27-23.68 241.8-24.71 243.4-25.16 245-25.61 246.66-25.61L246.66-25.61Q248.73-25.61 250.5-24.84 252.27-24.07 253.65-22.57 255.03-21.07 255.82-18.63 256.62-16.19 256.62-13.06L256.62-13.06ZM246.75-23.24L246.75-23.24Q243.95-23.24 242.27-21.02 240.6-18.8 240.21-14.94L240.21-14.94 251.86-14.94Q251.86-18.85 250.54-21.04 249.22-23.24 246.75-23.24ZM269.36-2.76L273.61-1 273.61 0 260.38 0 260.38-1 264.87-2.76 264.87-21.09 260.38-22.85 260.38-23.85 268.87-25.61 269.36-25.1 269.36-22.14Q271.09-23.75 273.41-24.68 275.73-25.61 277.98-25.61L277.98-25.61Q281.25-25.61 283.41-23.61 285.57-21.61 285.57-17.65L285.57-17.65 285.57-2.76 290.06-1 290.06 0 276.81 0 276.81-1 281.08-2.76 281.08-16.16Q281.08-19.68 279.82-21.04 278.56-22.41 275.51-22.41L275.51-22.41Q271.87-22.41 269.36-20.24L269.36-20.24 269.36-2.76ZM301.83-2.76L306.32-1 306.32 0 292.82 0 292.82-1 297.31-2.76 297.31-21.09 292.82-22.85 292.82-23.85 301.32-25.61 301.83-25.1 301.83-2.76ZM295.68-32.96L295.68-32.96Q295.68-34.23 296.57-35.12 297.46-36.01 298.78-36.01L298.78-36.01Q300.05-36.01 300.94-35.12 301.83-34.23 301.83-32.96L301.83-32.96Q301.83-31.64 300.94-30.75 300.05-29.86 298.78-29.86L298.78-29.86Q297.46-29.86 296.57-30.75 295.68-31.64 295.68-32.96ZM331.61-13.06L330.9-12.35 315.11-12.35Q315.13-9.62 315.89-7.59 316.64-5.57 317.94-4.42 319.23-3.27 320.78-2.73 322.33-2.2 324.16-2.2L324.16-2.2Q326.7-2.2 329.61-3.91L329.61-3.91 330.37-2.44Q328.31-0.63 326.26-0.01 324.21 0.61 321.6 0.61L321.6 0.61Q319.33 0.61 317.23-0.35 315.13-1.32 313.54-3.02 311.96-4.71 311.01-7.18 310.05-9.64 310.05-12.5L310.05-12.5Q310.05-15.21 310.75-17.44 311.44-19.68 312.59-21.17 313.74-22.66 315.27-23.68 316.79-24.71 318.39-25.16 319.99-25.61 321.65-25.61L321.65-25.61Q323.72-25.61 325.49-24.84 327.26-24.07 328.64-22.57 330.02-21.07 330.82-18.63 331.61-16.19 331.61-13.06L331.61-13.06ZM321.75-23.24L321.75-23.24Q318.94-23.24 317.27-21.02 315.6-18.8 315.2-14.94L315.2-14.94 326.85-14.94Q326.85-18.85 325.53-21.04 324.21-23.24 321.75-23.24ZM344.35-2.76L348.6-1 348.6 0 335.37 0 335.37-1 339.86-2.76 339.86-21.09 335.37-22.85 335.37-23.85 343.86-25.61 344.35-25.1 344.35-22.14Q346.09-23.75 348.41-24.68 350.72-25.61 352.97-25.61L352.97-25.61Q356.24-25.61 358.4-23.61 360.56-21.61 360.56-17.65L360.56-17.65 360.56-2.76 365.06-1 365.06 0 351.8 0 351.8-1 356.07-2.76 356.07-16.16Q356.07-19.68 354.81-21.04 353.56-22.41 350.5-22.41L350.5-22.41Q346.87-22.41 344.35-20.24L344.35-20.24 344.35-2.76ZM383.56-23.1L375.55-21.61 375.55-8.01Q375.55-6.35 375.81-5.22 376.06-4.1 376.56-3.55 377.06-3 377.63-2.8 378.19-2.59 378.97-2.59L378.97-2.59Q380.43-2.59 381.42-2.84 382.41-3.1 383.56-3.81L383.56-3.81 384.32-2.25Q380.87 0.61 376.77 0.61L376.77 0.61Q374.38 0.61 372.72-1.28 371.06-3.17 371.06-6.59L371.06-6.59 371.06-21.61 366.52-22.85 366.52-23.85 371.25-24.85 373.06-31.59 375.55-31.59 375.55-24.85 382.7-24.85 383.56-24.56 383.56-23.1Z" opacity="1" transform="matrix(1,0,0,1,0,0)" fill="black" class="slogan-text-1" id="SvgjsPath2301" stroke-width="7" stroke="black" stroke-linejoin="round"></path></svg></g></svg></g></svg></g></svg></g><g></g></svg></g></svg></g></svg></g></mask><g transform="matrix(1,0,0,1,39.55199999999999,41.70507091521446)"><svg viewBox="0 0 316.416 163.78985816957106" height="163.78985816957106" width="316.416"><g><svg viewBox="0 0 316.416 163.78985816957106" height="163.78985816957106" width="316.416"><g><svg viewBox="0 0 316.416 163.78985816957106" height="163.78985816957106" width="316.416"><g><svg viewBox="0 0 316.416 163.78985816957106" height="163.78985816957106" width="316.416"><g id="textblocktransform"><svg viewBox="0 0 316.416 163.78985816957106" height="163.78985816957106" width="316.416" id="textblock"><g><svg viewBox="0 0 316.416 101.66177026866617" height="101.66177026866617" width="316.416"><g transform="matrix(1,0,0,1,0,0)"><svg width="316.416" viewBox="-3.389930527775 -31.4 127.344930527775 41.6" height="101.66177026866617" data-palette-color="#dd7914"><path d="M27.85 6.2L27.85 6.2Q23.9 6.2 20.95 3.85L20.95 3.85Q19.55 2.7 17.9 0.83 16.25-1.05 14.7-3.23 13.15-5.4 11.95-7.3L11.95-7.3Q9.85-6.95 8.05-6.85L8.05-6.85Q7.05-4.95 6.35-3.2 5.65-1.45 5.3 0.15L5.3 0.15Q5.25 0.45 5.23 0.65 5.2 0.85 5.2 0.95L5.2 0.95Q5.2 1.85 5.55 2.53 5.9 3.2 6.35 3.25L6.35 3.25Q6.75 3.3 7 3.45 7.25 3.6 7.35 3.8L7.35 3.8 7.35 3.9Q7.35 4.25 6.5 4.25L6.5 4.25Q3.65 4.25 3.65 1.65L3.65 1.65Q3.65 1.45 3.7 1.07 3.75 0.7 3.85 0.15L3.85 0.15Q4.5-3.05 6.35-6.9L6.35-6.9Q5.5-7.15 4.53-7.65 3.55-8.15 2.9-9.13 2.25-10.1 2.25-11.75L2.25-11.75Q2.25-13.5 3.1-14.68 3.95-15.85 5.4-15.85L5.4-15.85Q6.55-15.85 7.95-15L7.95-15Q8.05-14.95 8.22-14.8 8.4-14.65 8.75-14.45L8.75-14.45Q9.3-14.1 9.95-13.3L9.95-13.3Q11.2-15.15 12.53-16.82 13.85-18.5 15.25-20.05L15.25-20.05Q15.45-20.25 15.45-20.6L15.45-20.6 15.45-20.8Q15.45-21.15 15.6-21.3L15.6-21.3Q16-21.7 17.25-22.2L17.25-22.2Q17.5-22.35 17.55-22.5L17.55-22.5Q17.8-22.8 18.25-22.8L18.25-22.8Q18.95-22.8 19.55-22.33 20.15-21.85 19.75-21.45L19.75-21.45 18.85-20.5Q17.7-19.35 16.2-17.7L16.2-17.7Q14.9-16.3 13.65-14.83 12.4-13.35 11.25-11.75L11.25-11.75Q11.65-11.15 12.15-10.4 12.65-9.65 13.15-8.8L13.15-8.8Q16.2-9.35 18.82-10.23 21.45-11.1 24.05-12.55L24.05-12.55Q27.3-14.35 29-16.45 30.7-18.55 30.7-20.5L30.7-20.5Q30.7-22.85 28.28-24.38 25.85-25.9 21.45-25.9L21.45-25.9Q20.05-25.9 18.45-25.7 16.85-25.5 15-25.1L15-25.1Q11.35-24.3 7.7-22.4 4.05-20.5 1.65-17.6L1.65-17.6Q1.1-16.95 0.7-17.35L0.7-17.35Q0.55-17.55 0.65-18L0.65-18Q0.7-18.35 1.2-19.1L1.2-19.1Q2.85-21.45 6.6-23.3L6.6-23.3Q9.1-24.6 11.85-25.5 14.6-26.4 17.15-26.9 19.7-27.4 21.55-27.4L21.55-27.4Q25.15-27.4 27.95-26.55L27.95-26.55Q33.4-24.8 33.4-20.95L33.4-20.95Q33.4-18.85 31.55-16.63 29.7-14.4 26.05-12.35L26.05-12.35Q23.8-11.1 20.5-9.83 17.2-8.55 13.85-7.7L13.85-7.7Q14.3-6.9 15.2-5.7 16.1-4.5 17.18-3.23 18.25-1.95 19.3-0.83 20.35 0.3 21.1 1L21.1 1Q25.2 4.8 29.5 4.8L29.5 4.8Q33.55 4.8 36.4 1.35L36.4 1.35Q36.5 1.25 36.65 1.25L36.65 1.25Q36.85 1.25 36.98 1.45 37.1 1.65 36.95 1.9L36.95 1.9Q35.15 4.05 32.77 5.13 30.4 6.2 27.85 6.2ZM7.15-8.55L7.15-8.55Q7.4-9.05 7.88-9.88 8.35-10.7 9-11.8L9-11.8Q8-13.1 6.83-13.73 5.65-14.35 4.5-14.35L4.5-14.35Q3.5-14.35 3.5-13.2L3.5-13.2Q3.5-11.4 4.4-10.18 5.3-8.95 7.15-8.55ZM9-8.4L9-8.4Q9.35-8.4 9.9-8.43 10.45-8.45 11.25-8.5L11.25-8.5 10.15-10.2Q9.8-9.7 9.53-9.25 9.25-8.8 9-8.4ZM30.1 0.55L30.1 0.55Q29.05 0.55 28.25 0L28.25 0Q26.95-1 26.95-3L26.95-3Q26.95-5 28.35-7.25 29.75-9.5 32.6-11.4L32.6-11.4Q33.1-11.75 33.95-11.75L33.95-11.75Q35.05-11.75 35.92-11.15 36.8-10.55 36.6-9.6L36.6-9.6Q36.25-8.05 35.07-6.85 33.9-5.65 32.32-4.73 30.75-3.8 29.1-2.95L29.1-2.95Q29.05-2.8 29.02-2.65 29-2.5 29-2.35L29-2.35Q29-1.65 29.47-1.13 29.95-0.6 30.8-0.6L30.8-0.6Q31.45-0.6 31.9-0.8L31.9-0.8Q32.7-1.1 33.22-1.35 33.75-1.6 34.45-2.1 35.15-2.6 36.35-3.6L36.35-3.6Q36.9-4 37-4L37-4Q37.3-4 37.2-3.55L37.2-3.55Q36.7-2.75 35.47-1.8 34.25-0.85 32.77-0.15 31.3 0.55 30.1 0.55ZM29.4-4.3L29.4-4.3Q29.8-4.3 31.05-5.1 32.3-5.9 33.4-6.85L33.4-6.85Q35.3-8.6 35.3-9.55L35.3-9.55Q35.3-9.8 35.15-10L35.15-10Q35-10.25 34.7-10.25L34.7-10.25Q33.75-10.25 31.5-8L31.5-8Q29.95-6.5 29.4-4.3ZM37.4 0.8L37.4 0.8Q36.5 0.8 36.5 0.1L36.5 0.1Q36.5-0.35 36.82-1.05 37.15-1.75 37.5-2.4L37.5-2.4Q38.45-4.1 39.25-5.7 40.05-7.3 40.8-9.1L40.8-9.1Q41.15-9.9 41.85-9.9L41.85-9.9Q42.6-9.9 42.3-9L42.3-9Q42-8.25 41.7-7.65L41.7-7.65Q40.3-4.8 40.3-3.8L40.3-3.8Q40.3-3.35 40.6-3.25L40.6-3.25Q41.3-3.8 41.65-4.08 42-4.35 42.05-4.4L42.05-4.4Q42.75-4.95 43.62-5.68 44.5-6.4 45.55-7.35L45.55-7.35Q47.2-8.85 48.3-8.85L48.3-8.85Q49.65-8.85 49.45-6.4L49.45-6.4Q49.4-5.45 49.45-4.55L49.45-4.55Q49.5-4.35 49.5-3.98 49.5-3.6 49.5-3.1L49.5-3.1Q49.5-2.6 50.1-2.6L50.1-2.6Q50.8-2.6 51.4-3L51.4-3 52.5-3.75 53.6-4.45Q53.7-4.5 53.95-4.5L53.95-4.5Q54.25-4.5 53.95-4.05L53.95-4.05Q50.8-0.15 48.75-0.15L48.75-0.15Q48.35-0.15 47.95-0.3L47.95-0.3Q47.6-0.45 47.45-1.18 47.3-1.9 47.27-2.75 47.25-3.6 47.25-4.05L47.25-4.05 47.3-5.7Q47.3-6.75 46.75-6.75L46.75-6.75Q45.45-6.75 40.35-1.4L40.35-1.4Q39.95-0.9 39.1-0.05 38.25 0.8 37.4 0.8ZM54.54 4.65L54.54 4.65Q54.29 4.65 54.29 4.2L54.29 4.2Q54.29 4.1 54.32 3.93 54.34 3.75 54.39 3.55L54.39 3.55 56.54-1.85 59.09-8.15Q58.49-8.2 57.34-8.13 56.19-8.05 55.39-7.9L55.39-7.9Q55.09-7.85 54.92-7.83 54.74-7.8 54.64-7.8L54.64-7.8Q54.24-7.8 54.09-8.15L54.09-8.15Q54.14-8.45 54.64-8.7L54.64-8.7Q54.89-8.8 55.24-8.88 55.59-8.95 56.09-9.05L56.09-9.05Q56.64-9.15 57.07-9.2 57.49-9.25 57.69-9.3L57.69-9.3Q57.94-9.35 58.19-9.4 58.44-9.45 58.79-9.5L58.79-9.5Q59.09-9.55 59.44-9.6 59.79-9.65 60.19-9.75L60.19-9.75Q60.59-10.3 61.39-11.7 62.19-13.1 63.44-15.4L63.44-15.4Q64.44-17.25 65.07-18.32 65.69-19.4 65.94-19.75L65.94-19.75Q66.39-20.35 66.99-20.35L66.99-20.35Q67.29-20.35 67.29-20.1L67.29-20.1Q67.29-20.05 67.04-19.45L67.04-19.45Q66.74-18.95 66.04-17.6 65.34-16.25 64.54-14.65 63.74-13.05 63.09-11.65 62.44-10.25 62.19-9.6L62.19-9.6Q62.44-9.65 62.77-9.65 63.09-9.65 63.59-9.65L63.59-9.65Q64.14-9.65 64.62-9.63 65.09-9.6 65.44-9.55L65.44-9.55Q66.14-9.4 66.14-9.15L66.14-9.15Q66.14-9.05 65.69-8.8L65.69-8.8Q65.44-8.7 64.74-8.6 64.04-8.5 62.89-8.4L62.89-8.4Q62.59-8.4 62.24-8.38 61.89-8.35 61.49-8.3L61.49-8.3Q59.99-5.85 57.39-0.15L57.39-0.15Q56.44 1.75 55.94 2.8 55.44 3.85 55.34 4.05L55.34 4.05Q54.89 4.65 54.54 4.65ZM91.09 6.2L91.09 6.2Q87.14 6.2 84.19 3.85L84.19 3.85Q82.79 2.7 81.14 0.83 79.49-1.05 77.94-3.23 76.39-5.4 75.19-7.3L75.19-7.3Q73.09-6.95 71.29-6.85L71.29-6.85Q70.29-4.95 69.59-3.2 68.89-1.45 68.54 0.15L68.54 0.15Q68.49 0.45 68.47 0.65 68.44 0.85 68.44 0.95L68.44 0.95Q68.44 1.85 68.79 2.53 69.14 3.2 69.59 3.25L69.59 3.25Q69.99 3.3 70.24 3.45 70.49 3.6 70.59 3.8L70.59 3.8 70.59 3.9Q70.59 4.25 69.74 4.25L69.74 4.25Q66.89 4.25 66.89 1.65L66.89 1.65Q66.89 1.45 66.94 1.07 66.99 0.7 67.09 0.15L67.09 0.15Q67.74-3.05 69.59-6.9L69.59-6.9Q68.74-7.15 67.77-7.65 66.79-8.15 66.14-9.13 65.49-10.1 65.49-11.75L65.49-11.75Q65.49-13.5 66.34-14.68 67.19-15.85 68.64-15.85L68.64-15.85Q69.79-15.85 71.19-15L71.19-15Q71.29-14.95 71.47-14.8 71.64-14.65 71.99-14.45L71.99-14.45Q72.54-14.1 73.19-13.3L73.19-13.3Q74.44-15.15 75.77-16.82 77.09-18.5 78.49-20.05L78.49-20.05Q78.69-20.25 78.69-20.6L78.69-20.6 78.69-20.8Q78.69-21.15 78.84-21.3L78.84-21.3Q79.24-21.7 80.49-22.2L80.49-22.2Q80.74-22.35 80.79-22.5L80.79-22.5Q81.04-22.8 81.49-22.8L81.49-22.8Q82.19-22.8 82.79-22.33 83.39-21.85 82.99-21.45L82.99-21.45 82.09-20.5Q80.94-19.35 79.44-17.7L79.44-17.7Q78.14-16.3 76.89-14.83 75.64-13.35 74.49-11.75L74.49-11.75Q74.89-11.15 75.39-10.4 75.89-9.65 76.39-8.8L76.39-8.8Q79.44-9.35 82.07-10.23 84.69-11.1 87.29-12.55L87.29-12.55Q90.54-14.35 92.24-16.45 93.94-18.55 93.94-20.5L93.94-20.5Q93.94-22.85 91.52-24.38 89.09-25.9 84.69-25.9L84.69-25.9Q83.29-25.9 81.69-25.7 80.09-25.5 78.24-25.1L78.24-25.1Q74.59-24.3 70.94-22.4 67.29-20.5 64.89-17.6L64.89-17.6Q64.34-16.95 63.94-17.35L63.94-17.35Q63.79-17.55 63.89-18L63.89-18Q63.94-18.35 64.44-19.1L64.44-19.1Q66.09-21.45 69.84-23.3L69.84-23.3Q72.34-24.6 75.09-25.5 77.84-26.4 80.39-26.9 82.94-27.4 84.79-27.4L84.79-27.4Q88.39-27.4 91.19-26.55L91.19-26.55Q96.64-24.8 96.64-20.95L96.64-20.95Q96.64-18.85 94.79-16.63 92.94-14.4 89.29-12.35L89.29-12.35Q87.04-11.1 83.74-9.83 80.44-8.55 77.09-7.7L77.09-7.7Q77.54-6.9 78.44-5.7 79.34-4.5 80.42-3.23 81.49-1.95 82.54-0.83 83.59 0.3 84.34 1L84.34 1Q88.44 4.8 92.74 4.8L92.74 4.8Q96.79 4.8 99.64 1.35L99.64 1.35Q99.74 1.25 99.89 1.25L99.89 1.25Q100.09 1.25 100.22 1.45 100.34 1.65 100.19 1.9L100.19 1.9Q98.39 4.05 96.02 5.13 93.64 6.2 91.09 6.2ZM70.39-8.55L70.39-8.55Q70.64-9.05 71.12-9.88 71.59-10.7 72.24-11.8L72.24-11.8Q71.24-13.1 70.07-13.73 68.89-14.35 67.74-14.35L67.74-14.35Q66.74-14.35 66.74-13.2L66.74-13.2Q66.74-11.4 67.64-10.18 68.54-8.95 70.39-8.55ZM72.24-8.4L72.24-8.4Q72.59-8.4 73.14-8.43 73.69-8.45 74.49-8.5L74.49-8.5 73.39-10.2Q73.04-9.7 72.77-9.25 72.49-8.8 72.24-8.4ZM95.64-10.95L95.64-10.95Q94.99-10.95 94.99-11.25L94.99-11.25Q94.99-11.5 95.36-11.98 95.74-12.45 96.24-12.8L96.24-12.8Q97.34-13.5 97.96-14 98.59-14.5 99.49-15.7L99.49-15.7Q99.54-15.6 99.54-15.3L99.54-15.3Q99.54-14.65 99.01-13.73 98.49-12.8 97.84-12.05 97.19-11.3 96.69-11.1L96.69-11.1Q96.24-10.95 95.64-10.95ZM91.19 1.3L91.19 1.3Q90.79 1.3 90.44 1 90.09 0.7 90.09 0.2L90.09 0.2Q90.09-0.85 91.54-3.65L91.54-3.65 92.09-4.75Q92.19-4.85 92.36-5.25 92.54-5.65 92.89-6.3L92.89-6.3Q93.24-7 93.44-7.55 93.64-8.1 93.74-8.6L93.74-8.6Q93.74-8.65 93.94-8.8 94.14-8.95 94.34-9.05L94.34-9.05 94.64-9.1Q95.04-9.1 95.31-8.95 95.59-8.8 95.49-8.55L95.49-8.55Q95.14-7.8 94.89-7.25 94.64-6.7 94.49-6.3L94.49-6.3 94.44-6.3Q93.89-5.05 93.51-3.93 93.14-2.8 93.19-1.8L93.19-1.8 93.24-0.45Q93.19 0.05 92.89 0.4L92.89 0.4Q92.69 0.55 92.34 0.78 91.99 1 91.44 1.25L91.44 1.25Q91.39 1.3 91.19 1.3ZM104.34 3.75L104.34 3.75Q103.59 3.75 103.24 3L103.24 3Q103.19 2.95 103.19 2.7L103.19 2.7Q103.19 2.45 103.44 1.55L103.44 1.55Q103.54 1.3 103.61 1.05 103.69 0.8 103.79 0.55L103.79 0.55Q103.89 0.3 103.99-0.03 104.09-0.35 104.19-0.7L104.19-0.7Q104.39-1.45 104.39-1.95L104.39-1.95Q104.39-2.65 103.94-2.65L103.94-2.65Q103.79-2.65 103.39-2.4L103.39-2.4Q102.74-1.9 102.01-1.45 101.29-1 100.49-0.6L100.49-0.6 98.89 0.25 97.84 0.85Q97.69 0.9 97.14 1.3L97.14 1.3Q96.64 1.6 96.09 1.6L96.09 1.6Q95.44 1.6 94.64 0.9L94.64 0.9Q94.04 0.3 94.04-0.35L94.04-0.35Q94.04-0.9 94.59-1.9L94.59-1.9Q94.99-2.55 95.94-3.5L95.94-3.5Q96.34-3.9 96.61-4.23 96.89-4.55 97.09-4.75L97.09-4.75Q99.19-7.55 103.59-9.7L103.59-9.7Q104.84-10.35 105.84-10.35L105.84-10.35Q106.94-10.35 107.59-9.45L107.59-9.45Q107.89-10.05 108.56-11.18 109.24-12.3 110.06-13.65 110.89-15 111.66-16.2 112.44-17.4 112.89-18.05L112.89-18.05Q114.24-19.9 115.09-20.85L115.09-20.85Q115.94-21.75 116.64-21.75L116.64-21.75Q116.89-21.75 117.29-21.5L117.29-21.5Q117.64-21.2 117.64-20.7L117.64-20.7Q117.64-19.95 116.99-18.95 116.34-17.95 115.19-16.5L115.19-16.5Q115.09-16.35 114.89-16.13 114.69-15.9 114.44-15.55L114.44-15.55Q113.89-14.75 113.29-13.88 112.69-13 111.99-12.15L111.99-12.15Q110.99-10.85 109.89-9.33 108.79-7.8 107.84-6.15L107.84-6.15Q106.99-4.65 106.39-3.08 105.79-1.5 105.39 0.1L105.39 0.1Q105.34 0.45 105.31 0.68 105.29 0.9 105.29 1L105.29 1 105.34 1.75Q105.39 1.9 105.39 2.45L105.39 2.45Q105.39 3.75 104.34 3.75ZM97.49-0.55L97.49-0.55Q98.04-0.55 98.49-0.75L98.49-0.75Q100.39-1.4 102.09-2.4 103.79-3.4 105.69-5.1L105.69-5.1Q105.94-5.8 106.29-6.6 106.64-7.4 107.04-8.35L107.04-8.35Q106.44-9.6 105.29-9.6L105.29-9.6Q104.54-9.6 103.69-9.1 102.84-8.6 101.79-7.75L101.79-7.75Q100.79-6.95 99.76-5.95 98.74-4.95 97.99-4.03 97.24-3.1 96.94-2.5L96.94-2.5Q96.64-2 96.64-1.35L96.64-1.35Q96.64-0.55 97.49-0.55ZM112.83 0.55L112.83 0.55Q111.78 0.55 110.98 0L110.98 0Q109.68-1 109.68-3L109.68-3Q109.68-5 111.08-7.25 112.48-9.5 115.33-11.4L115.33-11.4Q115.83-11.75 116.68-11.75L116.68-11.75Q117.78-11.75 118.66-11.15 119.53-10.55 119.33-9.6L119.33-9.6Q118.98-8.05 117.81-6.85 116.63-5.65 115.06-4.73 113.48-3.8 111.83-2.95L111.83-2.95Q111.78-2.8 111.76-2.65 111.73-2.5 111.73-2.35L111.73-2.35Q111.73-1.65 112.21-1.13 112.68-0.6 113.53-0.6L113.53-0.6Q114.18-0.6 114.63-0.8L114.63-0.8Q115.43-1.1 115.96-1.35 116.48-1.6 117.18-2.1 117.88-2.6 119.08-3.6L119.08-3.6Q119.63-4 119.73-4L119.73-4Q120.03-4 119.93-3.55L119.93-3.55Q119.43-2.75 118.21-1.8 116.98-0.85 115.51-0.15 114.03 0.55 112.83 0.55ZM112.13-4.3L112.13-4.3Q112.53-4.3 113.78-5.1 115.03-5.9 116.13-6.85L116.13-6.85Q118.03-8.6 118.03-9.55L118.03-9.55Q118.03-9.8 117.88-10L117.88-10Q117.73-10.25 117.43-10.25L117.43-10.25Q116.48-10.25 114.23-8L114.23-8Q112.68-6.5 112.13-4.3Z" opacity="1" transform="matrix(1,0,0,1,0,0)" fill="#dd7914" class="wordmark-text-0" data-fill-palette-color="primary" id="text-0"></path></svg></g></svg></g><g transform="matrix(1,0,0,1,3.5,121.52375985041428)"><svg viewBox="0 0 309.416 42.26609831915679" height="42.26609831915679" width="309.416"><g transform="matrix(1,0,0,1,0,0)"><svg width="309.416" viewBox="-1.5099999999999998 -42.11 389.83 54.12" height="42.26609831915679" data-palette-color="#3a4d81"><path d="M3.76-9.74L6.15-3.2Q9.99-2.25 12.55-2.25L12.55-2.25Q13.87-2.25 15.15-2.53 16.43-2.81 17.44-3.49 18.46-4.17 19.08-5.31 19.7-6.45 19.7-8.15L19.7-8.15Q19.7-9.28 19.38-10.27 19.07-11.25 18.23-12.23 17.38-13.21 15.94-14.22 14.5-15.23 12.26-16.46L12.26-16.46Q9.81-17.77 8.04-18.96 6.27-20.14 5.11-21.41 3.96-22.68 3.41-24.15 2.86-25.61 2.86-27.49L2.86-27.49Q2.86-36.69 14.36-36.69L14.36-36.69Q18.43-36.69 22.95-35.55L22.95-35.55 22.95-27.1 21.95-27.1 19.31-33.3Q16.72-33.84 14.65-33.84L14.65-33.84Q11.16-33.84 9.2-32.51 7.25-31.18 7.25-28.39L7.25-28.39Q7.25-27.42 7.52-26.54 7.79-25.66 8.62-24.71 9.45-23.75 10.96-22.68 12.48-21.61 14.94-20.24L14.94-20.24Q17.38-18.92 19.2-17.8 21.02-16.67 22.22-15.49 23.41-14.31 24.01-12.92 24.61-11.52 24.61-9.69L24.61-9.69Q24.61-6.76 23.63-4.8 22.66-2.83 21.01-1.62 19.36-0.42 17.16 0.1 14.97 0.61 12.55 0.61L12.55 0.61Q11.13 0.61 9.92 0.52 8.72 0.44 7.54 0.26 6.37 0.07 5.15-0.23 3.93-0.54 2.49-0.95L2.49-0.95 2.49-9.74 3.76-9.74ZM48.58-3.39L53.1-2.15 53.1-1.25 47.8 0.39Q46.24 0.73 45.16 0.04 44.09-0.66 44.09-2.34L44.09-2.34Q40.92 0.61 36.64 0.61L36.64 0.61Q33.1 0.61 31.35-1.22 29.59-3.05 29.59-5.81L29.59-5.81Q29.59-7.89 30.52-9.48 31.44-11.08 32.88-12.04 34.32-12.99 36.33-13.62 38.33-14.26 40.18-14.5 42.04-14.75 44.09-14.79L44.09-14.79 44.09-17.14Q44.09-20.56 43.02-21.9 41.94-23.24 39.45-23.24L39.45-23.24Q37.57-23.24 35.03-22.66L35.03-22.66 32.44-16.99 31.25-16.99 31.25-23.95Q33.44-24.73 35.89-25.17 38.33-25.61 40.18-25.61L40.18-25.61Q44.21-25.61 46.4-23.99 48.58-22.36 48.58-18.65L48.58-18.65 48.58-3.39ZM38.69-2.25L38.69-2.25Q40.09-2.25 41.55-2.92 43.02-3.59 44.09-4.76L44.09-4.76 44.09-12.79Q39.21-12.57 36.64-10.8 34.08-9.03 34.08-6.3L34.08-6.3Q34.08-4.2 35.42-3.22 36.77-2.25 38.69-2.25ZM72.58-23.1L64.84-21.61 64.84-2.76 71.09-1 71.09 0 55.83 0 55.83-1 60.32-2.76 60.32-21.51 55.59-22.85 55.59-23.85 60.32-24.85 60.32-27.34Q60.32-29.96 61.25-32.06 62.18-34.16 63.73-35.45 65.28-36.74 67.22-37.43 69.16-38.11 71.28-38.11L71.28-38.11Q72.04-38.11 73.31-37.92 74.58-37.72 75.24-37.45L75.24-37.45 75.24-30 74.24-30 70.77-35.84Q68.65-35.84 67.29-34.77 65.94-33.69 65.39-31.97 64.84-30.25 64.84-27.86L64.84-27.86 64.84-24.85 71.72-24.85 72.58-24.56 72.58-23.1ZM97.28-13.06L96.57-12.35 80.78-12.35Q80.8-9.62 81.56-7.59 82.32-5.57 83.61-4.42 84.9-3.27 86.45-2.73 88.01-2.2 89.84-2.2L89.84-2.2Q92.38-2.2 95.28-3.91L95.28-3.91 96.04-2.44Q93.99-0.63 91.94-0.01 89.89 0.61 87.27 0.61L87.27 0.61Q85 0.61 82.9-0.35 80.8-1.32 79.22-3.02 77.63-4.71 76.68-7.18 75.72-9.64 75.72-12.5L75.72-12.5Q75.72-15.21 76.42-17.44 77.12-19.68 78.26-21.17 79.41-22.66 80.94-23.68 82.46-24.71 84.06-25.16 85.66-25.61 87.32-25.61L87.32-25.61Q89.4-25.61 91.17-24.84 92.94-24.07 94.32-22.57 95.7-21.07 96.49-18.63 97.28-16.19 97.28-13.06L97.28-13.06ZM87.42-23.24L87.42-23.24Q84.61-23.24 82.94-21.02 81.27-18.8 80.88-14.94L80.88-14.94 92.52-14.94Q92.52-18.85 91.2-21.04 89.89-23.24 87.42-23.24ZM103.82-2.44L103.82-2.44Q103.82-3.71 104.73-4.6 105.63-5.49 106.92-5.49L106.92-5.49Q108.56-5.49 109.32-4.33 110.07-3.17 110.07-1.39L110.07-1.39Q110.07 1.88 108 4.5 105.92 7.13 102.82 8.01L102.82 8.01 102.04 6.49Q104.12 5.52 105.54 4.1 106.97 2.69 106.97 1.1L106.97 1.1 106.92 0.66Q105.63 0.66 104.73-0.24 103.82-1.15 103.82-2.44ZM143.42-10.79L143.47-0.9Q139.2 0.61 134.73 0.61L134.73 0.61Q131.7 0.61 128.95-0.06 126.21-0.73 123.8-2.2 121.4-3.66 119.63-5.76 117.86-7.86 116.85-10.9 115.83-13.94 115.83-17.6L115.83-17.6Q115.83-22.19 117.32-25.89 118.81-29.59 121.39-31.95 123.96-34.3 127.38-35.55 130.8-36.79 134.73-36.79L134.73-36.79Q138.88-36.79 143.13-35.45L143.13-35.45 143.08-26.15 142.08-26.15 139.03-33.11Q136.97-34.01 133.63-34.01L133.63-34.01Q131.68-34.01 129.94-33.5 128.21-32.98 126.61-31.79 125.01-30.59 123.85-28.77 122.69-26.95 122.01-24.17 121.33-21.39 121.33-17.9L121.33-17.9Q121.33-14.18 122.41-11.15 123.5-8.11 125.38-6.14 127.26-4.17 129.74-3.11 132.21-2.05 135.02-2.05L135.02-2.05Q137.51-2.05 139.73-2.76L139.73-2.76 142.42-10.79 143.42-10.79ZM159.95-25.61L159.95-25.61Q162.73-25.61 164.95-24.66 167.17-23.71 168.71-21.98 170.25-20.26 171.07-17.85 171.88-15.43 171.88-12.5L171.88-12.5Q171.88-9.59 171.08-7.18 170.27-4.76 168.74-3.03 167.2-1.29 164.98-0.34 162.75 0.61 159.95 0.61L159.95 0.61Q157.11 0.61 154.89-0.34 152.67-1.29 151.13-3.03 149.59-4.76 148.79-7.17 147.98-9.57 147.98-12.5L147.98-12.5Q147.98-15.43 148.8-17.85 149.62-20.26 151.16-21.98 152.69-23.71 154.92-24.66 157.14-25.61 159.95-25.61ZM154.62-20.43L154.62-20.43Q152.74-17.38 152.74-12.5L152.74-12.5Q152.74-10.08 153.22-8.07 153.7-6.05 154.61-4.6 155.53-3.15 156.87-2.34 158.21-1.54 159.95-1.54L159.95-1.54Q161.68-1.54 163.05-2.34 164.41-3.15 165.35-4.6 166.29-6.05 166.79-8.07 167.29-10.08 167.29-12.5L167.29-12.5Q167.29-14.89 166.79-16.91 166.29-18.92 165.35-20.37 164.41-21.83 163.05-22.64 161.68-23.46 159.95-23.46L159.95-23.46Q156.48-23.46 154.62-20.43ZM184.87-2.76L189.12-1 189.12 0 175.89 0 175.89-1 180.38-2.76 180.38-21.09 175.89-22.85 175.89-23.85 184.38-25.61 184.87-25.1 184.87-22.14Q186.6-23.75 188.92-24.68 191.24-25.61 193.49-25.61L193.49-25.61Q196.76-25.61 198.92-23.61 201.08-21.61 201.08-17.65L201.08-17.65 201.08-2.76 205.57-1 205.57 0 192.32 0 192.32-1 196.59-2.76 196.59-16.16Q196.59-19.68 195.33-21.04 194.07-22.41 191.02-22.41L191.02-22.41Q187.38-22.41 184.87-20.24L184.87-20.24 184.87-2.76ZM223.22-25L233.57-25 233.57-24 230.08-22.24 230.08-22.41 221.37 0.05 218.68 0.61 209.04-22.24 205.57-24 205.57-25 217.53-25 217.53-24 213.73-22.51 220.78-5.64 226.84-22.56 223.22-24 223.22-25ZM256.62-13.06L255.91-12.35 240.11-12.35Q240.14-9.62 240.9-7.59 241.65-5.57 242.95-4.42 244.24-3.27 245.79-2.73 247.34-2.2 249.17-2.2L249.17-2.2Q251.71-2.2 254.62-3.91L254.62-3.91 255.37-2.44Q253.32-0.63 251.27-0.01 249.22 0.61 246.61 0.61L246.61 0.61Q244.34 0.61 242.24-0.35 240.14-1.32 238.55-3.02 236.96-4.71 236.01-7.18 235.06-9.64 235.06-12.5L235.06-12.5Q235.06-15.21 235.76-17.44 236.45-19.68 237.6-21.17 238.75-22.66 240.27-23.68 241.8-24.71 243.4-25.16 245-25.61 246.66-25.61L246.66-25.61Q248.73-25.61 250.5-24.84 252.27-24.07 253.65-22.57 255.03-21.07 255.82-18.63 256.62-16.19 256.62-13.06L256.62-13.06ZM246.75-23.24L246.75-23.24Q243.95-23.24 242.27-21.02 240.6-18.8 240.21-14.94L240.21-14.94 251.86-14.94Q251.86-18.85 250.54-21.04 249.22-23.24 246.75-23.24ZM269.36-2.76L273.61-1 273.61 0 260.38 0 260.38-1 264.87-2.76 264.87-21.09 260.38-22.85 260.38-23.85 268.87-25.61 269.36-25.1 269.36-22.14Q271.09-23.75 273.41-24.68 275.73-25.61 277.98-25.61L277.98-25.61Q281.25-25.61 283.41-23.61 285.57-21.61 285.57-17.65L285.57-17.65 285.57-2.76 290.06-1 290.06 0 276.81 0 276.81-1 281.08-2.76 281.08-16.16Q281.08-19.68 279.82-21.04 278.56-22.41 275.51-22.41L275.51-22.41Q271.87-22.41 269.36-20.24L269.36-20.24 269.36-2.76ZM301.83-2.76L306.32-1 306.32 0 292.82 0 292.82-1 297.31-2.76 297.31-21.09 292.82-22.85 292.82-23.85 301.32-25.61 301.83-25.1 301.83-2.76ZM295.68-32.96L295.68-32.96Q295.68-34.23 296.57-35.12 297.46-36.01 298.78-36.01L298.78-36.01Q300.05-36.01 300.94-35.12 301.83-34.23 301.83-32.96L301.83-32.96Q301.83-31.64 300.94-30.75 300.05-29.86 298.78-29.86L298.78-29.86Q297.46-29.86 296.57-30.75 295.68-31.64 295.68-32.96ZM331.61-13.06L330.9-12.35 315.11-12.35Q315.13-9.62 315.89-7.59 316.64-5.57 317.94-4.42 319.23-3.27 320.78-2.73 322.33-2.2 324.16-2.2L324.16-2.2Q326.7-2.2 329.61-3.91L329.61-3.91 330.37-2.44Q328.31-0.63 326.26-0.01 324.21 0.61 321.6 0.61L321.6 0.61Q319.33 0.61 317.23-0.35 315.13-1.32 313.54-3.02 311.96-4.71 311.01-7.18 310.05-9.64 310.05-12.5L310.05-12.5Q310.05-15.21 310.75-17.44 311.44-19.68 312.59-21.17 313.74-22.66 315.27-23.68 316.79-24.71 318.39-25.16 319.99-25.61 321.65-25.61L321.65-25.61Q323.72-25.61 325.49-24.84 327.26-24.07 328.64-22.57 330.02-21.07 330.82-18.63 331.61-16.19 331.61-13.06L331.61-13.06ZM321.75-23.24L321.75-23.24Q318.94-23.24 317.27-21.02 315.6-18.8 315.2-14.94L315.2-14.94 326.85-14.94Q326.85-18.85 325.53-21.04 324.21-23.24 321.75-23.24ZM344.35-2.76L348.6-1 348.6 0 335.37 0 335.37-1 339.86-2.76 339.86-21.09 335.37-22.85 335.37-23.85 343.86-25.61 344.35-25.1 344.35-22.14Q346.09-23.75 348.41-24.68 350.72-25.61 352.97-25.61L352.97-25.61Q356.24-25.61 358.4-23.61 360.56-21.61 360.56-17.65L360.56-17.65 360.56-2.76 365.06-1 365.06 0 351.8 0 351.8-1 356.07-2.76 356.07-16.16Q356.07-19.68 354.81-21.04 353.56-22.41 350.5-22.41L350.5-22.41Q346.87-22.41 344.35-20.24L344.35-20.24 344.35-2.76ZM383.56-23.1L375.55-21.61 375.55-8.01Q375.55-6.35 375.81-5.22 376.06-4.1 376.56-3.55 377.06-3 377.63-2.8 378.19-2.59 378.97-2.59L378.97-2.59Q380.43-2.59 381.42-2.84 382.41-3.1 383.56-3.81L383.56-3.81 384.32-2.25Q380.87 0.61 376.77 0.61L376.77 0.61Q374.38 0.61 372.72-1.28 371.06-3.17 371.06-6.59L371.06-6.59 371.06-21.61 366.52-22.85 366.52-23.85 371.25-24.85 373.06-31.59 375.55-31.59 375.55-24.85 382.7-24.85 383.56-24.56 383.56-23.1Z" opacity="1" transform="matrix(1,0,0,1,0,0)" fill="#3a4d81" class="slogan-text-1" data-fill-palette-color="secondary" id="text-1"></path></svg></g></svg></g></svg></g></svg></g><g></g></svg></g></svg></g></svg></g><g mask="url(#85a30838-94a8-41ff-ab76-03b51ac0f913)"><g transform="matrix(3.93521626040249, 0, 0, 3.93521626040249, 1, 57.59068241709916)"><svg version="1.0" xmlns="http://www.w3.org/2000/svg" xmlns:xlink="http://www.w3.org/1999/xlink" x="0" y="0" viewBox="0 0 99.99958679774086 33.54800001570916" enable-background="new 0 0 99.999 33.547" xml:space="preserve" id="none" width="99.99958679774086" height="33.54800001570916" class="icon-none" data-fill-palette-color="accent"><path d="M99.212 10.535L79.778 8.898 75.278 0H40.965L33.548 9.819 2.454 11.456 0 24.445H7.105C7.592 19.563 11.711 15.751 16.722 15.751 21.732 15.751 25.851 19.563 26.338 24.445H70.621C71.108 19.563 75.227 15.751 80.237 15.751 85.225 15.751 89.33 19.529 89.847 24.379L98.597 23.115C98.599 23.116 101.29 13.016 99.212 10.535M55.768 10.765H35.21L41.932 1.867H55.768zM57.635 10.765V1.866H70.623L75.124 10.764H57.635z" fill="#231d1f" data-fill-palette-color="accent"></path><path d="M16.723 17.285A8.131 8.131 0 1 0 16.722 33.548 8.131 8.131 0 0 0 16.723 17.285M16.723 30.787A5.37 5.37 0 1 1 16.723 20.047 5.37 5.37 0 0 1 16.722 30.788" fill="#231d1f" data-fill-palette-color="accent"></path><path d="M80.238 17.285A8.131 8.131 0 0 0 80.238 33.547 8.131 8.131 0 1 0 80.238 17.285M80.238 30.787A5.37 5.37 0 1 1 80.239 20.048 5.37 5.37 0 0 1 80.238 30.787" fill="#231d1f" data-fill-palette-color="accent"></path></svg></g></g></svg></g><defs></defs></svg><rect width="395.52" height="247.2" fill="none" stroke="none" visibility="hidden"></rect></g></svg></g></svg>