<?xml version="1.0" encoding="utf-8"?>
<!DOCTYPE svg PUBLIC "-//W3C//DTD SVG 20010904//EN" "http://www.w3.org/TR/2001/REC-SVG-20010904/DTD/svg10.dtd">
<svg version="1.0" xmlns="http://www.w3.org/2000/svg" width="514pt" height="514pt" viewBox="0 0 514 514" style="" preserveAspectRatio="xMidYMid meet">
<g fill="#000000FF" stroke="#000000FF">
<path d="M 54.763 3.024 C 30.278 7.195 10.265 25.475 3.336 50.000 C 1.582 56.209 1.500 65.482 1.500 257.000 C 1.500 448.518 1.582 457.791 3.336 464.000 C 9.456 485.661 25.852 502.625 47.000 509.177 L 54.500 511.500 158.000 511.500 L 261.500 511.500 265.624 509.294 C 281.201 500.961 280.551 479.327 264.500 471.896 C 260.693 470.133 255.676 470.042 160.500 470.000 C 65.672 469.958 60.293 469.861 56.500 468.121 C 51.958 466.038 47.590 461.955 45.157 457.521 C 43.630 454.737 43.500 438.998 43.500 257.000 C 43.500 75.002 43.630 59.263 45.157 56.479 C 47.590 52.045 51.958 47.962 56.500 45.879 C 60.293 44.139 65.672 44.042 160.500 44.000 C 255.676 43.958 260.693 43.867 264.500 42.104 C 280.551 34.673 281.201 13.039 265.624 4.706 L 261.500 2.500 160.500 2.358 C 104.950 2.280 57.369 2.580 54.763 3.024 "/></g>
<g fill="#000000FF" stroke="#000000FF">
<path d="M 353.500 110.890 C 351.300 111.905 348.509 113.814 347.298 115.132 C 342.187 120.691 340.548 130.461 343.498 137.782 C 344.559 140.415 358.932 155.276 392.748 188.704 L 440.500 235.908 314.446 235.954 L 188.393 236.000 183.309 238.533 C 180.133 240.116 177.152 242.616 175.363 245.198 C 172.820 248.867 172.500 250.187 172.500 257.000 C 172.500 263.813 172.820 265.133 175.363 268.802 C 177.152 271.384 180.133 273.884 183.309 275.467 L 188.393 278.000 314.446 278.046 L 440.500 278.092 392.748 325.296 C 358.932 358.724 344.559 373.585 343.498 376.218 C 340.547 383.543 342.197 393.365 347.298 398.834 C 353.048 404.998 364.362 406.949 371.790 403.056 C 377.405 400.113 506.963 272.020 509.865 266.542 C 511.456 263.540 512.231 260.413 512.231 257.000 C 512.231 253.587 511.456 250.460 509.865 247.458 C 506.638 241.366 377.149 113.597 371.500 110.931 C 366.401 108.525 358.662 108.508 353.500 110.890 "/></g>
</svg>
